<?xml version="1.0" standalone="no"?>
<!DOCTYPE svg PUBLIC "-//W3C//DTD SVG 20010904//EN"
 "http://www.w3.org/TR/2001/REC-SVG-20010904/DTD/svg10.dtd">
<svg version="1.0" xmlns="http://www.w3.org/2000/svg"
 width="375.000000pt" height="94.000000pt" viewBox="0 0 375.000000 94.000000"
 preserveAspectRatio="xMidYMid meet">

<g transform="translate(0.000000,94.000000) scale(0.100000,-0.100000)"
fill="#000000" stroke="none">
<path d="M1220 930 c-189 -18 -311 -65 -445 -174 -44 -35 -235 -220 -425 -410
l-345 -346 261 0 260 0 205 198 c275 266 323 309 372 334 104 53 88 52 888 55
l745 4 175 175 174 174 -890 -1 c-490 -1 -928 -5 -975 -9z"/>
<path d="M2715 470 l-470 -470 286 0 286 0 463 470 462 470 -278 0 -279 0
-470 -470z"/>
<path d="M1281 519 c-140 -16 -175 -40 -430 -294 l-226 -225 244 0 244 0 91
88 c65 63 103 91 132 100 30 9 173 12 525 12 l484 0 165 165 165 165 -660 -1
c-363 -1 -693 -5 -734 -10z"/>
<path d="M3050 110 c0 -5 9 -10 20 -10 17 0 20 -7 20 -50 0 -27 5 -50 10 -50
6 0 10 23 10 50 0 38 4 50 15 50 8 0 15 5 15 10 0 6 -20 10 -45 10 -25 0 -45
-4 -45 -10z"/>
<path d="M3160 60 c0 -67 20 -84 21 -17 l1 42 15 -42 c8 -24 18 -43 23 -43 5
0 15 19 23 43 l15 42 1 -42 c1 -67 21 -50 21 17 0 72 -20 82 -39 20 -6 -22
-15 -40 -20 -40 -4 0 -14 18 -21 40 -20 62 -40 52 -40 -20z"/>
</g>
</svg>
